# This file uses centimeters as units for non-parametric coordinates.

mtllib pdisk.mtl
v -15.778644 0.000000 15.778644
v 0.000000 0.000000 22.077087
v 15.778644 0.000000 15.778644
v -22.077087 0.000000 0.000000
v 0.000000 0.000000 0.000000
v 22.077087 0.000000 0.000000
v -15.778644 0.000000 -15.778644
v 0.000000 0.000000 -22.077087
v 15.778644 0.000000 -15.778644
v -15.778644 0.000000 15.778644
v 0.000000 0.000000 22.077087
v 15.778644 0.000000 15.778644
v -22.077087 0.000000 0.000000
v 0.000000 0.000000 0.000000
v 22.077087 0.000000 0.000000
v -15.778644 0.000000 -15.778644
v 0.000000 0.000000 -22.077087
v 15.778644 0.000000 -15.778644
vt 0.000000 0.000000
vt 0.500000 0.000000
vt 0.000000 0.500000
vt 0.500000 0.500000
vt 1.000000 0.000000
vt 1.000000 0.500000
vt 0.000000 1.000000
vt 0.500000 1.000000
vt 1.000000 1.000000
vt 0.000000 0.000000
vt 0.500000 0.000000
vt 0.000000 0.500000
vt 0.500000 0.500000
vt 1.000000 0.000000
vt 1.000000 0.500000
vt 0.000000 1.000000
vt 0.500000 1.000000
vt 1.000000 1.000000
vn 0.000000 1.000000 0.000000
vn 0.000000 1.000000 0.000000
vn 0.000000 1.000000 0.000000
vn 0.000000 1.000000 0.000000
vn 0.000000 1.000000 0.000000
vn 0.000000 1.000000 0.000000
vn 0.000000 1.000000 0.000000
vn 0.000000 1.000000 0.000000
vn 0.000000 1.000000 0.000000
vn 0.000000 1.000000 0.000000
vn 0.000000 1.000000 0.000000
vn 0.000000 1.000000 0.000000
vn 0.000000 1.000000 0.000000
vn 0.000000 1.000000 0.000000
vn 0.000000 1.000000 0.000000
vn 0.000000 1.000000 0.000000
vn 0.000000 1.000000 0.000000
vn 0.000000 1.000000 0.000000
vn 0.000000 1.000000 0.000000
vn 0.000000 1.000000 0.000000
vn 0.000000 1.000000 0.000000
vn 0.000000 1.000000 0.000000
vn 0.000000 1.000000 0.000000
vn 0.000000 1.000000 0.000000
vn 0.000000 1.000000 0.000000
vn 0.000000 1.000000 0.000000
vn 0.000000 1.000000 0.000000
vn 0.000000 1.000000 0.000000
vn 0.000000 1.000000 0.000000
vn 0.000000 1.000000 0.000000
vn 0.000000 1.000000 0.000000
vn 0.000000 1.000000 0.000000
vn 0.000000 1.000000 0.000000
vn 0.000000 1.000000 0.000000
vn 0.000000 1.000000 0.000000
vn 0.000000 1.000000 0.000000
vn 0.000000 1.000000 0.000000
vn 0.000000 1.000000 0.000000
vn 0.000000 1.000000 0.000000
vn 0.000000 1.000000 0.000000
vn 0.000000 1.000000 0.000000
vn 0.000000 1.000000 0.000000
vn 0.000000 1.000000 0.000000
vn 0.000000 1.000000 0.000000
vn 0.000000 1.000000 0.000000
vn 0.000000 1.000000 0.000000
vn 0.000000 1.000000 0.000000
vn 0.000000 1.000000 0.000000
usemtl initialShadingGroup1
f 1/1/1 2/2/2 4/3/3
f 4/3/4 2/2/5 5/4/6
f 2/2/7 3/5/8 5/4/9
f 5/4/10 3/5/11 6/6/12
f 4/3/13 5/4/14 7/7/15
f 7/7/16 5/4/17 8/8/18
f 5/4/19 6/6/20 8/8/21
f 8/8/22 6/6/23 9/9/24
f 10/10/25 11/11/26 13/12/27
f 13/12/28 11/11/29 14/13/30
f 11/11/31 12/14/32 14/13/33
f 14/13/34 12/14/35 15/15/36
f 13/12/37 14/13/38 16/16/39
f 16/16/40 14/13/41 17/17/42
f 14/13/43 15/15/44 17/17/45
f 17/17/46 15/15/47 18/18/48
