# This file uses centimeters as units for non-parametric coordinates.

mtllib plane.mtl
v -71.251974 -0.000000 71.251974
v 0.000000 -0.000000 71.251974
v 71.251974 -0.000000 71.251974
v -71.251974 0.000000 0.000000
v 0.000000 0.000000 0.000000
v 71.251974 0.000000 0.000000
v -71.251974 0.000000 -71.251974
v 0.000000 0.000000 -71.251974
v 71.251974 0.000000 -71.251974
vt 0.000000 0.000000
vt 0.500000 0.000000
vt 1.000000 0.000000
vt 0.000000 0.500000
vt 0.500000 0.500000
vt 1.000000 0.500000
vt 0.000000 1.000000
vt 0.500000 1.000000
vt 1.000000 1.000000
vn 0.000000 1.000000 0.000000
vn 0.000000 1.000000 0.000000
vn 0.000000 1.000000 0.000000
vn 0.000000 1.000000 0.000000
vn 0.000000 1.000000 0.000000
vn 0.000000 1.000000 0.000000
vn 0.000000 1.000000 0.000000
vn 0.000000 1.000000 0.000000
vn 0.000000 1.000000 0.000000
usemtl initialShadingGroup
f 1/1/1 2/2/2 4/4/3
f 4/4/3 2/2/2 5/5/4
f 2/2/2 3/3/5 5/5/4
f 5/5/4 3/3/5 6/6/6
f 4/4/3 5/5/4 7/7/7
f 7/7/7 5/5/4 8/8/8
f 5/5/4 6/6/6 8/8/8
f 8/8/8 6/6/6 9/9/9
v -71.251974 -0.000000 71.251974
v 0.000000 -0.000000 71.251974
v 71.251974 -0.000000 71.251974
v -71.251974 0.000000 0.000000
v 0.000000 0.000000 0.000000
v 71.251974 0.000000 0.000000
v -71.251974 0.000000 -71.251974
v 0.000000 0.000000 -71.251974
v 71.251974 0.000000 -71.251974
vt 0.000000 0.000000
vt 0.500000 0.000000
vt 1.000000 0.000000
vt 0.000000 0.500000
vt 0.500000 0.500000
vt 1.000000 0.500000
vt 0.000000 1.000000
vt 0.500000 1.000000
vt 1.000000 1.000000
vn 0.000000 1.000000 0.000000
vn 0.000000 1.000000 0.000000
vn 0.000000 1.000000 0.000000
vn 0.000000 1.000000 0.000000
vn 0.000000 1.000000 0.000000
vn 0.000000 1.000000 0.000000
vn 0.000000 1.000000 0.000000
vn 0.000000 1.000000 0.000000
vn 0.000000 1.000000 0.000000
f 10/10/10 11/11/11 13/13/12
f 13/13/12 11/11/11 14/14/13
f 11/11/11 12/12/14 14/14/13
f 14/14/13 12/12/14 15/15/15
f 13/13/12 14/14/13 16/16/16
f 16/16/16 14/14/13 17/17/17
f 14/14/13 15/15/15 17/17/17
f 17/17/17 15/15/15 18/18/18
